<svg width="236" height="241" viewBox="0 0 236 241" fill="none" xmlns="http://www.w3.org/2000/svg">
<g clip-path="url(#clip0_2082_273)">
<circle cx="118" cy="84.5" r="84.5"/>
<path d="M55.132 194.68C55.4787 194.853 55.6787 195.127 55.732 195.5C55.7987 195.873 55.7054 196.213 55.452 196.52C55.2787 196.76 55.052 196.893 54.772 196.92C54.5054 196.947 54.232 196.893 53.952 196.76C53.632 196.613 53.292 196.5 52.932 196.42C52.5854 196.34 52.2187 196.3 51.832 196.3C51.112 196.3 50.4654 196.413 49.892 196.64C49.332 196.867 48.852 197.193 48.452 197.62C48.052 198.033 47.7454 198.527 47.532 199.1C47.332 199.673 47.232 200.307 47.232 201C47.232 201.813 47.3454 202.52 47.572 203.12C47.812 203.72 48.1387 204.22 48.552 204.62C48.9654 205.02 49.452 205.32 50.012 205.52C50.572 205.707 51.1787 205.8 51.832 205.8C52.192 205.8 52.552 205.767 52.912 205.7C53.272 205.633 53.6187 205.513 53.952 205.34C54.232 205.207 54.5054 205.16 54.772 205.2C55.052 205.24 55.2854 205.38 55.472 205.62C55.7387 205.953 55.832 206.3 55.752 206.66C55.6854 207.007 55.4854 207.26 55.152 207.42C54.8054 207.593 54.4454 207.74 54.072 207.86C53.712 207.967 53.3454 208.047 52.972 208.1C52.5987 208.167 52.2187 208.2 51.832 208.2C50.872 208.2 49.9587 208.047 49.092 207.74C48.2387 207.433 47.472 206.98 46.792 206.38C46.1254 205.78 45.5987 205.033 45.212 204.14C44.8254 203.233 44.632 202.187 44.632 201C44.632 199.973 44.8054 199.027 45.152 198.16C45.512 197.293 46.012 196.547 46.652 195.92C47.3054 195.28 48.072 194.787 48.952 194.44C49.832 194.08 50.792 193.9 51.832 193.9C52.4187 193.9 52.992 193.967 53.552 194.1C54.112 194.233 54.6387 194.427 55.132 194.68ZM68.5511 202.66C68.5511 203.753 68.3044 204.72 67.8111 205.56C67.3311 206.387 66.6778 207.033 65.8511 207.5C65.0378 207.967 64.1244 208.2 63.1111 208.2C62.0978 208.2 61.1778 207.967 60.3511 207.5C59.5378 207.033 58.8844 206.387 58.3911 205.56C57.9111 204.72 57.6711 203.753 57.6711 202.66C57.6711 201.567 57.9111 200.607 58.3911 199.78C58.8844 198.94 59.5378 198.287 60.3511 197.82C61.1778 197.34 62.0978 197.1 63.1111 197.1C64.1244 197.1 65.0378 197.34 65.8511 197.82C66.6778 198.287 67.3311 198.94 67.8111 199.78C68.3044 200.607 68.5511 201.567 68.5511 202.66ZM66.1511 202.66C66.1511 201.98 66.0111 201.393 65.7311 200.9C65.4644 200.393 65.0978 200 64.6311 199.72C64.1778 199.44 63.6711 199.3 63.1111 199.3C62.5511 199.3 62.0378 199.44 61.5711 199.72C61.1178 200 60.7511 200.393 60.4711 200.9C60.2044 201.393 60.0711 201.98 60.0711 202.66C60.0711 203.327 60.2044 203.913 60.4711 204.42C60.7511 204.913 61.1178 205.3 61.5711 205.58C62.0378 205.86 62.5511 206 63.1111 206C63.6711 206 64.1778 205.86 64.6311 205.58C65.0978 205.3 65.4644 204.913 65.7311 204.42C66.0111 203.913 66.1511 203.327 66.1511 202.66ZM73.7516 206.78C73.7516 207.127 73.6316 207.42 73.3916 207.66C73.1649 207.887 72.8782 208 72.5316 208C72.1982 208 71.9182 207.887 71.6916 207.66C71.4649 207.42 71.3516 207.127 71.3516 206.78V194.42C71.3516 194.073 71.4649 193.787 71.6916 193.56C71.9316 193.32 72.2249 193.2 72.5716 193.2C72.9182 193.2 73.1982 193.32 73.4116 193.56C73.6382 193.787 73.7516 194.073 73.7516 194.42V206.78ZM79.3022 206.78C79.3022 207.127 79.1889 207.42 78.9622 207.66C78.7355 207.887 78.4489 208 78.1022 208C77.7555 208 77.4689 207.887 77.2422 207.66C77.0155 207.42 76.9022 207.127 76.9022 206.78V198.52C76.9022 198.173 77.0155 197.887 77.2422 197.66C77.4689 197.42 77.7555 197.3 78.1022 197.3C78.4489 197.3 78.7355 197.42 78.9622 197.66C79.1889 197.887 79.3022 198.173 79.3022 198.52V206.78ZM78.0822 196C77.6289 196 77.3089 195.927 77.1222 195.78C76.9355 195.633 76.8422 195.373 76.8422 195V194.62C76.8422 194.233 76.9422 193.973 77.1422 193.84C77.3555 193.693 77.6755 193.62 78.1022 193.62C78.5689 193.62 78.8955 193.693 79.0822 193.84C79.2689 193.987 79.3622 194.247 79.3622 194.62V195C79.3622 195.387 79.2622 195.653 79.0622 195.8C78.8622 195.933 78.5355 196 78.0822 196ZM87.9888 197.1C88.9754 197.1 89.7221 197.307 90.2288 197.72C90.7488 198.133 91.1021 198.687 91.2888 199.38C91.4888 200.06 91.5888 200.82 91.5888 201.66V206.78C91.5888 207.127 91.4754 207.42 91.2487 207.66C91.0221 207.887 90.7354 208 90.3888 208C90.0421 208 89.7554 207.887 89.5288 207.66C89.3021 207.42 89.1888 207.127 89.1888 206.78V201.66C89.1888 201.22 89.1288 200.827 89.0088 200.48C88.9021 200.12 88.7021 199.833 88.4088 199.62C88.1154 199.407 87.6954 199.3 87.1488 199.3C86.6154 199.3 86.1621 199.407 85.7888 199.62C85.4288 199.833 85.1488 200.12 84.9488 200.48C84.7621 200.827 84.6688 201.22 84.6688 201.66V206.78C84.6688 207.127 84.5554 207.42 84.3288 207.66C84.1021 207.887 83.8154 208 83.4688 208C83.1221 208 82.8354 207.887 82.6088 207.66C82.3821 207.42 82.2688 207.127 82.2688 206.78V198.52C82.2688 198.173 82.3821 197.887 82.6088 197.66C82.8354 197.42 83.1221 197.3 83.4688 197.3C83.8154 197.3 84.1021 197.42 84.3288 197.66C84.5554 197.887 84.6688 198.173 84.6688 198.52V199.38L84.3688 199.32C84.4888 199.093 84.6621 198.853 84.8888 198.6C85.1154 198.333 85.3821 198.087 85.6888 197.86C85.9954 197.633 86.3421 197.453 86.7288 197.32C87.1154 197.173 87.5354 197.1 87.9888 197.1ZM106.988 194C107.948 194 108.802 194.18 109.548 194.54C110.295 194.9 110.922 195.407 111.428 196.06C111.948 196.7 112.335 197.447 112.588 198.3C112.855 199.14 112.988 200.04 112.988 201C112.988 202.293 112.755 203.473 112.288 204.54C111.822 205.593 111.142 206.433 110.248 207.06C109.368 207.687 108.282 208 106.988 208H102.208C101.862 208 101.568 207.887 101.328 207.66C101.102 207.42 100.988 207.127 100.988 206.78V195.22C100.988 194.873 101.102 194.587 101.328 194.36C101.568 194.12 101.862 194 102.208 194H106.988ZM106.788 205.7C107.628 205.7 108.315 205.487 108.848 205.06C109.382 204.62 109.768 204.047 110.008 203.34C110.262 202.62 110.388 201.84 110.388 201C110.388 200.373 110.315 199.78 110.168 199.22C110.035 198.647 109.822 198.147 109.528 197.72C109.235 197.28 108.862 196.933 108.408 196.68C107.955 196.427 107.415 196.3 106.788 196.3H103.288L103.488 196.12V205.92L103.368 205.7H106.788ZM120.781 208.2C119.648 208.2 118.661 207.967 117.821 207.5C116.995 207.02 116.355 206.373 115.901 205.56C115.461 204.747 115.241 203.827 115.241 202.8C115.241 201.6 115.481 200.58 115.961 199.74C116.455 198.887 117.095 198.233 117.881 197.78C118.668 197.327 119.501 197.1 120.381 197.1C121.061 197.1 121.701 197.24 122.301 197.52C122.915 197.8 123.455 198.187 123.921 198.68C124.388 199.16 124.755 199.72 125.021 200.36C125.301 201 125.441 201.68 125.441 202.4C125.428 202.72 125.301 202.98 125.061 203.18C124.821 203.38 124.541 203.48 124.221 203.48H116.581L115.981 201.48H123.321L122.881 201.88V201.34C122.855 200.953 122.715 200.607 122.461 200.3C122.221 199.993 121.915 199.753 121.541 199.58C121.181 199.393 120.795 199.3 120.381 199.3C119.981 199.3 119.608 199.353 119.261 199.46C118.915 199.567 118.615 199.747 118.361 200C118.108 200.253 117.908 200.593 117.761 201.02C117.615 201.447 117.541 201.987 117.541 202.64C117.541 203.36 117.688 203.973 117.981 204.48C118.288 204.973 118.675 205.353 119.141 205.62C119.621 205.873 120.128 206 120.661 206C121.155 206 121.548 205.96 121.841 205.88C122.135 205.8 122.368 205.707 122.541 205.6C122.728 205.48 122.895 205.38 123.041 205.3C123.281 205.18 123.508 205.12 123.721 205.12C124.015 205.12 124.255 205.22 124.441 205.42C124.641 205.62 124.741 205.853 124.741 206.12C124.741 206.48 124.555 206.807 124.181 207.1C123.835 207.393 123.348 207.653 122.721 207.88C122.095 208.093 121.448 208.2 120.781 208.2ZM132.798 197.1C133.558 197.1 134.218 197.18 134.778 197.34C135.352 197.5 135.792 197.727 136.098 198.02C136.418 198.3 136.578 198.64 136.578 199.04C136.578 199.307 136.498 199.56 136.338 199.8C136.178 200.027 135.945 200.14 135.638 200.14C135.425 200.14 135.245 200.113 135.098 200.06C134.965 199.993 134.845 199.913 134.738 199.82C134.632 199.727 134.505 199.64 134.358 199.56C134.225 199.48 134.018 199.42 133.738 199.38C133.472 199.327 133.272 199.3 133.138 199.3C132.458 199.3 131.878 199.447 131.398 199.74C130.932 200.033 130.572 200.433 130.318 200.94C130.065 201.433 129.938 202.007 129.938 202.66C129.938 203.3 130.065 203.873 130.318 204.38C130.585 204.873 130.945 205.267 131.398 205.56C131.865 205.853 132.398 206 132.998 206C133.332 206 133.618 205.98 133.858 205.94C134.098 205.9 134.298 205.84 134.458 205.76C134.645 205.653 134.812 205.54 134.958 205.42C135.105 205.3 135.325 205.24 135.618 205.24C135.965 205.24 136.232 205.353 136.418 205.58C136.605 205.793 136.698 206.06 136.698 206.38C136.698 206.713 136.512 207.02 136.138 207.3C135.765 207.567 135.272 207.787 134.658 207.96C134.058 208.12 133.405 208.2 132.698 208.2C131.645 208.2 130.732 207.96 129.958 207.48C129.185 206.987 128.585 206.32 128.158 205.48C127.745 204.64 127.538 203.7 127.538 202.66C127.538 201.567 127.758 200.607 128.198 199.78C128.652 198.94 129.272 198.287 130.058 197.82C130.858 197.34 131.772 197.1 132.798 197.1ZM149.309 202.66C149.309 203.753 149.062 204.72 148.569 205.56C148.089 206.387 147.436 207.033 146.609 207.5C145.796 207.967 144.882 208.2 143.869 208.2C142.856 208.2 141.936 207.967 141.109 207.5C140.296 207.033 139.642 206.387 139.149 205.56C138.669 204.72 138.429 203.753 138.429 202.66C138.429 201.567 138.669 200.607 139.149 199.78C139.642 198.94 140.296 198.287 141.109 197.82C141.936 197.34 142.856 197.1 143.869 197.1C144.882 197.1 145.796 197.34 146.609 197.82C147.436 198.287 148.089 198.94 148.569 199.78C149.062 200.607 149.309 201.567 149.309 202.66ZM146.909 202.66C146.909 201.98 146.769 201.393 146.489 200.9C146.222 200.393 145.856 200 145.389 199.72C144.936 199.44 144.429 199.3 143.869 199.3C143.309 199.3 142.796 199.44 142.329 199.72C141.876 200 141.509 200.393 141.229 200.9C140.962 201.393 140.829 201.98 140.829 202.66C140.829 203.327 140.962 203.913 141.229 204.42C141.509 204.913 141.876 205.3 142.329 205.58C142.796 205.86 143.309 206 143.869 206C144.429 206 144.936 205.86 145.389 205.58C145.856 205.3 146.222 204.913 146.489 204.42C146.769 203.913 146.909 203.327 146.909 202.66ZM153.109 208C152.763 208 152.476 207.887 152.249 207.66C152.023 207.42 151.909 207.127 151.909 206.78V198.52C151.909 198.173 152.023 197.887 152.249 197.66C152.476 197.42 152.763 197.3 153.109 197.3C153.456 197.3 153.743 197.42 153.969 197.66C154.196 197.887 154.309 198.173 154.309 198.52V200.4L154.169 199.06C154.316 198.74 154.503 198.46 154.729 198.22C154.969 197.967 155.236 197.76 155.529 197.6C155.823 197.427 156.136 197.3 156.469 197.22C156.803 197.14 157.136 197.1 157.469 197.1C157.869 197.1 158.203 197.213 158.469 197.44C158.749 197.667 158.889 197.933 158.889 198.24C158.889 198.68 158.776 199 158.549 199.2C158.323 199.387 158.076 199.48 157.809 199.48C157.556 199.48 157.323 199.433 157.109 199.34C156.909 199.247 156.676 199.2 156.409 199.2C156.169 199.2 155.923 199.26 155.669 199.38C155.429 199.487 155.203 199.66 154.989 199.9C154.789 200.14 154.623 200.44 154.489 200.8C154.369 201.147 154.309 201.56 154.309 202.04V206.78C154.309 207.127 154.196 207.42 153.969 207.66C153.743 207.887 153.456 208 153.109 208ZM165.392 197.1C166.152 197.1 166.812 197.18 167.372 197.34C167.945 197.5 168.385 197.727 168.692 198.02C169.012 198.3 169.172 198.64 169.172 199.04C169.172 199.307 169.092 199.56 168.932 199.8C168.772 200.027 168.539 200.14 168.232 200.14C168.019 200.14 167.839 200.113 167.692 200.06C167.559 199.993 167.439 199.913 167.332 199.82C167.225 199.727 167.099 199.64 166.952 199.56C166.819 199.48 166.612 199.42 166.332 199.38C166.065 199.327 165.865 199.3 165.732 199.3C165.052 199.3 164.472 199.447 163.992 199.74C163.525 200.033 163.165 200.433 162.912 200.94C162.659 201.433 162.532 202.007 162.532 202.66C162.532 203.3 162.659 203.873 162.912 204.38C163.179 204.873 163.539 205.267 163.992 205.56C164.459 205.853 164.992 206 165.592 206C165.925 206 166.212 205.98 166.452 205.94C166.692 205.9 166.892 205.84 167.052 205.76C167.239 205.653 167.405 205.54 167.552 205.42C167.699 205.3 167.919 205.24 168.212 205.24C168.559 205.24 168.825 205.353 169.012 205.58C169.199 205.793 169.292 206.06 169.292 206.38C169.292 206.713 169.105 207.02 168.732 207.3C168.359 207.567 167.865 207.787 167.252 207.96C166.652 208.12 165.999 208.2 165.292 208.2C164.239 208.2 163.325 207.96 162.552 207.48C161.779 206.987 161.179 206.32 160.752 205.48C160.339 204.64 160.132 203.7 160.132 202.66C160.132 201.567 160.352 200.607 160.792 199.78C161.245 198.94 161.865 198.287 162.652 197.82C163.452 197.34 164.365 197.1 165.392 197.1ZM176.563 208.2C175.429 208.2 174.443 207.967 173.603 207.5C172.776 207.02 172.136 206.373 171.683 205.56C171.243 204.747 171.023 203.827 171.023 202.8C171.023 201.6 171.263 200.58 171.743 199.74C172.236 198.887 172.876 198.233 173.663 197.78C174.449 197.327 175.283 197.1 176.163 197.1C176.843 197.1 177.483 197.24 178.083 197.52C178.696 197.8 179.236 198.187 179.703 198.68C180.169 199.16 180.536 199.72 180.803 200.36C181.083 201 181.223 201.68 181.223 202.4C181.209 202.72 181.083 202.98 180.843 203.18C180.603 203.38 180.323 203.48 180.003 203.48H172.363L171.763 201.48H179.103L178.663 201.88V201.34C178.636 200.953 178.496 200.607 178.243 200.3C178.003 199.993 177.696 199.753 177.323 199.58C176.963 199.393 176.576 199.3 176.163 199.3C175.763 199.3 175.389 199.353 175.043 199.46C174.696 199.567 174.396 199.747 174.143 200C173.889 200.253 173.689 200.593 173.543 201.02C173.396 201.447 173.323 201.987 173.323 202.64C173.323 203.36 173.469 203.973 173.763 204.48C174.069 204.973 174.456 205.353 174.923 205.62C175.403 205.873 175.909 206 176.443 206C176.936 206 177.329 205.96 177.623 205.88C177.916 205.8 178.149 205.707 178.323 205.6C178.509 205.48 178.676 205.38 178.823 205.3C179.063 205.18 179.289 205.12 179.503 205.12C179.796 205.12 180.036 205.22 180.223 205.42C180.423 205.62 180.523 205.853 180.523 206.12C180.523 206.48 180.336 206.807 179.963 207.1C179.616 207.393 179.129 207.653 178.503 207.88C177.876 208.093 177.229 208.2 176.563 208.2ZM183.2 206.34C183.066 206.153 183.006 205.913 183.02 205.62C183.033 205.327 183.206 205.073 183.54 204.86C183.753 204.727 183.98 204.673 184.22 204.7C184.46 204.713 184.693 204.833 184.92 205.06C185.306 205.447 185.713 205.747 186.14 205.96C186.566 206.173 187.1 206.28 187.74 206.28C187.94 206.267 188.16 206.24 188.4 206.2C188.64 206.147 188.846 206.04 189.02 205.88C189.206 205.707 189.3 205.447 189.3 205.1C189.3 204.807 189.2 204.573 189 204.4C188.8 204.227 188.533 204.08 188.2 203.96C187.88 203.84 187.52 203.727 187.12 203.62C186.706 203.5 186.28 203.367 185.84 203.22C185.413 203.073 185.02 202.887 184.66 202.66C184.3 202.42 184.006 202.107 183.78 201.72C183.553 201.333 183.44 200.847 183.44 200.26C183.44 199.593 183.626 199.027 184 198.56C184.373 198.093 184.853 197.733 185.44 197.48C186.04 197.227 186.666 197.1 187.32 197.1C187.733 197.1 188.166 197.153 188.62 197.26C189.073 197.353 189.506 197.513 189.92 197.74C190.333 197.953 190.68 198.24 190.96 198.6C191.106 198.8 191.193 199.04 191.22 199.32C191.246 199.6 191.12 199.853 190.84 200.08C190.64 200.24 190.406 200.313 190.14 200.3C189.873 200.273 189.653 200.18 189.48 200.02C189.253 199.727 188.946 199.493 188.56 199.32C188.186 199.147 187.753 199.06 187.26 199.06C187.06 199.06 186.84 199.087 186.6 199.14C186.373 199.18 186.173 199.28 186 199.44C185.826 199.587 185.74 199.827 185.74 200.16C185.74 200.467 185.84 200.713 186.04 200.9C186.24 201.073 186.506 201.22 186.84 201.34C187.186 201.447 187.553 201.553 187.94 201.66C188.34 201.767 188.746 201.893 189.16 202.04C189.573 202.187 189.953 202.38 190.3 202.62C190.646 202.86 190.926 203.173 191.14 203.56C191.353 203.933 191.46 204.413 191.46 205C191.46 205.68 191.26 206.26 190.86 206.74C190.46 207.22 189.96 207.587 189.36 207.84C188.76 208.08 188.146 208.2 187.52 208.2C186.733 208.2 185.946 208.067 185.16 207.8C184.373 207.52 183.72 207.033 183.2 206.34Z" fill="#34393C"/>
<path d="M50.0176 236C49.8869 236 49.7796 235.958 49.6956 235.874C49.6209 235.79 49.5836 235.692 49.5836 235.58V226.62C49.5836 226.508 49.6256 226.41 49.7096 226.326C49.7936 226.242 49.8916 226.2 50.0036 226.2H55.0996C55.2209 226.2 55.3189 226.242 55.3936 226.326C55.4776 226.401 55.5196 226.499 55.5196 226.62C55.5196 226.732 55.4776 226.83 55.3936 226.914C55.3189 226.989 55.2209 227.026 55.0996 227.026H50.3816L50.4376 226.942V230.666L50.3676 230.54H54.4696C54.5909 230.54 54.6889 230.582 54.7636 230.666C54.8476 230.741 54.8896 230.834 54.8896 230.946C54.8896 231.067 54.8476 231.165 54.7636 231.24C54.6889 231.315 54.5909 231.352 54.4696 231.352H50.3396L50.4376 231.24V235.58C50.4376 235.692 50.3956 235.79 50.3116 235.874C50.2369 235.958 50.1389 236 50.0176 236ZM58.1002 236C57.9696 236 57.8669 235.958 57.7922 235.874C57.7176 235.79 57.6802 235.692 57.6802 235.58V229.308C57.6802 229.196 57.7176 229.098 57.7922 229.014C57.8762 228.93 57.9789 228.888 58.1002 228.888C58.2216 228.888 58.3196 228.93 58.3942 229.014C58.4782 229.098 58.5202 229.196 58.5202 229.308V231.408L58.3102 231.45C58.3382 231.123 58.4176 230.801 58.5482 230.484C58.6882 230.157 58.8749 229.859 59.1082 229.588C59.3416 229.317 59.6169 229.098 59.9342 228.93C60.2609 228.762 60.6249 228.678 61.0262 228.678C61.1942 228.678 61.3576 228.715 61.5162 228.79C61.6749 228.855 61.7542 228.967 61.7542 229.126C61.7542 229.266 61.7169 229.373 61.6422 229.448C61.5676 229.523 61.4789 229.56 61.3762 229.56C61.2922 229.56 61.1989 229.537 61.0962 229.49C61.0029 229.443 60.8769 229.42 60.7182 229.42C60.4569 229.42 60.1956 229.499 59.9342 229.658C59.6729 229.807 59.4349 230.013 59.2202 230.274C59.0056 230.535 58.8329 230.829 58.7022 231.156C58.5809 231.473 58.5202 231.795 58.5202 232.122V235.58C58.5202 235.692 58.4782 235.79 58.3942 235.874C58.3102 235.958 58.2122 236 58.1002 236ZM69.9165 232.416C69.9165 233.125 69.7625 233.765 69.4545 234.334C69.1465 234.894 68.7265 235.337 68.1945 235.664C67.6625 235.981 67.0558 236.14 66.3745 236.14C65.7118 236.14 65.1098 235.981 64.5685 235.664C64.0365 235.337 63.6118 234.894 63.2945 234.334C62.9865 233.765 62.8325 233.125 62.8325 232.416C62.8325 231.697 62.9865 231.058 63.2945 230.498C63.6118 229.938 64.0365 229.495 64.5685 229.168C65.1098 228.841 65.7118 228.678 66.3745 228.678C67.0558 228.678 67.6625 228.841 68.1945 229.168C68.7265 229.495 69.1465 229.938 69.4545 230.498C69.7625 231.058 69.9165 231.697 69.9165 232.416ZM69.0765 232.416C69.0765 231.847 68.9598 231.343 68.7265 230.904C68.4932 230.456 68.1712 230.106 67.7605 229.854C67.3592 229.593 66.8972 229.462 66.3745 229.462C65.8705 229.462 65.4132 229.593 65.0025 229.854C64.5918 230.106 64.2652 230.456 64.0225 230.904C63.7892 231.343 63.6725 231.847 63.6725 232.416C63.6725 232.985 63.7892 233.489 64.0225 233.928C64.2652 234.367 64.5918 234.717 65.0025 234.978C65.4132 235.23 65.8705 235.356 66.3745 235.356C66.8972 235.356 67.3592 235.23 67.7605 234.978C68.1712 234.717 68.4932 234.367 68.7265 233.928C68.9598 233.489 69.0765 232.985 69.0765 232.416ZM75.5757 228.678C76.1917 228.678 76.6817 228.804 77.0457 229.056C77.419 229.299 77.685 229.635 77.8437 230.064C78.0117 230.484 78.0957 230.951 78.0957 231.464V235.58C78.0957 235.692 78.0537 235.79 77.9697 235.874C77.8857 235.958 77.7877 236 77.6757 236C77.545 236 77.4424 235.958 77.3677 235.874C77.293 235.79 77.2557 235.692 77.2557 235.58V231.506C77.2557 231.133 77.195 230.792 77.0737 230.484C76.9524 230.176 76.7517 229.929 76.4717 229.742C76.201 229.555 75.8417 229.462 75.3937 229.462C74.9924 229.462 74.6097 229.555 74.2457 229.742C73.891 229.929 73.6017 230.176 73.3777 230.484C73.1537 230.792 73.0417 231.133 73.0417 231.506V235.58C73.0417 235.692 72.9997 235.79 72.9157 235.874C72.8317 235.958 72.7337 236 72.6217 236C72.491 236 72.3884 235.958 72.3137 235.874C72.239 235.79 72.2017 235.692 72.2017 235.58V229.308C72.2017 229.196 72.239 229.098 72.3137 229.014C72.3977 228.93 72.5004 228.888 72.6217 228.888C72.743 228.888 72.841 228.93 72.9157 229.014C72.9997 229.098 73.0417 229.196 73.0417 229.308V230.484L72.7197 230.988C72.7384 230.689 72.8317 230.405 72.9997 230.134C73.177 229.854 73.401 229.607 73.6717 229.392C73.9424 229.168 74.241 228.995 74.5677 228.874C74.9037 228.743 75.2397 228.678 75.5757 228.678ZM80.3335 228.874H83.5955C83.7075 228.874 83.8008 228.916 83.8755 229C83.9501 229.075 83.9875 229.168 83.9875 229.28C83.9875 229.383 83.9501 229.471 83.8755 229.546C83.8008 229.621 83.7075 229.658 83.5955 229.658H80.3335C80.2215 229.658 80.1235 229.621 80.0395 229.546C79.9648 229.462 79.9275 229.369 79.9275 229.266C79.9275 229.154 79.9648 229.061 80.0395 228.986C80.1235 228.911 80.2215 228.874 80.3335 228.874ZM81.7755 226.9C81.8968 226.9 81.9948 226.942 82.0695 227.026C82.1535 227.11 82.1955 227.208 82.1955 227.32V234.348C82.1955 234.609 82.2281 234.805 82.2935 234.936C82.3681 235.067 82.4615 235.155 82.5735 235.202C82.6855 235.239 82.7975 235.258 82.9095 235.258C82.9841 235.258 83.0495 235.249 83.1055 235.23C83.1708 235.202 83.2408 235.188 83.3155 235.188C83.3995 235.188 83.4695 235.221 83.5255 235.286C83.5908 235.351 83.6235 235.435 83.6235 235.538C83.6235 235.669 83.5488 235.781 83.3995 235.874C83.2501 235.958 83.0728 236 82.8675 236C82.7835 236 82.6575 235.995 82.4895 235.986C82.3215 235.967 82.1488 235.916 81.9715 235.832C81.7941 235.739 81.6448 235.58 81.5235 235.356C81.4115 235.132 81.3555 234.81 81.3555 234.39V227.32C81.3555 227.208 81.3928 227.11 81.4675 227.026C81.5515 226.942 81.6541 226.9 81.7755 226.9ZM86.1516 232.038C86.0396 232.038 85.9416 231.996 85.8576 231.912C85.7829 231.828 85.7456 231.725 85.7456 231.604C85.7456 231.492 85.7829 231.399 85.8576 231.324C85.9416 231.24 86.0396 231.198 86.1516 231.198H89.1756C89.2876 231.198 89.3856 231.24 89.4696 231.324C89.5536 231.408 89.5956 231.511 89.5956 231.632C89.5956 231.744 89.5536 231.842 89.4696 231.926C89.3856 232.001 89.2876 232.038 89.1756 232.038H86.1516ZM95.2287 236.14C94.51 236.14 93.8753 235.986 93.3247 235.678C92.774 235.37 92.3447 234.941 92.0367 234.39C91.7287 233.839 91.5747 233.195 91.5747 232.458C91.5747 231.665 91.7287 230.988 92.0367 230.428C92.354 229.868 92.76 229.439 93.2547 229.14C93.7587 228.832 94.2907 228.678 94.8507 228.678C95.2613 228.678 95.658 228.753 96.0407 228.902C96.4327 229.042 96.778 229.257 97.0767 229.546C97.3847 229.826 97.6273 230.171 97.8047 230.582C97.9913 230.993 98.094 231.469 98.1127 232.01C98.1033 232.122 98.0567 232.22 97.9727 232.304C97.8887 232.379 97.7907 232.416 97.6787 232.416H92.0647L91.8967 231.66H97.4127L97.2307 231.828V231.548C97.1933 231.109 97.0533 230.736 96.8107 230.428C96.568 230.12 96.274 229.887 95.9287 229.728C95.5833 229.569 95.224 229.49 94.8507 229.49C94.5707 229.49 94.2813 229.546 93.9827 229.658C93.6933 229.77 93.4273 229.947 93.1847 230.19C92.9513 230.423 92.76 230.727 92.6107 231.1C92.4613 231.464 92.3867 231.898 92.3867 232.402C92.3867 232.953 92.4987 233.452 92.7227 233.9C92.9467 234.348 93.2687 234.703 93.6887 234.964C94.118 235.225 94.6267 235.356 95.2147 235.356C95.5413 235.356 95.8353 235.309 96.0967 235.216C96.358 235.123 96.5867 235.001 96.7827 234.852C96.9787 234.693 97.142 234.53 97.2727 234.362C97.3753 234.278 97.478 234.236 97.5807 234.236C97.674 234.236 97.7533 234.273 97.8187 234.348C97.8933 234.423 97.9307 234.507 97.9307 234.6C97.9307 234.712 97.884 234.81 97.7907 234.894C97.5107 235.23 97.1467 235.524 96.6987 235.776C96.2507 236.019 95.7607 236.14 95.2287 236.14ZM103.785 228.678C104.401 228.678 104.891 228.804 105.255 229.056C105.628 229.299 105.894 229.635 106.053 230.064C106.221 230.484 106.305 230.951 106.305 231.464V235.58C106.305 235.692 106.263 235.79 106.179 235.874C106.095 235.958 105.997 236 105.885 236C105.754 236 105.651 235.958 105.577 235.874C105.502 235.79 105.465 235.692 105.465 235.58V231.506C105.465 231.133 105.404 230.792 105.283 230.484C105.161 230.176 104.961 229.929 104.681 229.742C104.41 229.555 104.051 229.462 103.603 229.462C103.201 229.462 102.819 229.555 102.455 229.742C102.1 229.929 101.811 230.176 101.587 230.484C101.363 230.792 101.251 231.133 101.251 231.506V235.58C101.251 235.692 101.209 235.79 101.125 235.874C101.041 235.958 100.943 236 100.831 236C100.7 236 100.597 235.958 100.523 235.874C100.448 235.79 100.411 235.692 100.411 235.58V229.308C100.411 229.196 100.448 229.098 100.523 229.014C100.607 228.93 100.709 228.888 100.831 228.888C100.952 228.888 101.05 228.93 101.125 229.014C101.209 229.098 101.251 229.196 101.251 229.308V230.484L100.929 230.988C100.947 230.689 101.041 230.405 101.209 230.134C101.386 229.854 101.61 229.607 101.881 229.392C102.151 229.168 102.45 228.995 102.777 228.874C103.113 228.743 103.449 228.678 103.785 228.678ZM114.87 225.64C114.992 225.64 115.09 225.682 115.164 225.766C115.248 225.841 115.29 225.939 115.29 226.06V235.58C115.29 235.692 115.248 235.79 115.164 235.874C115.08 235.958 114.982 236 114.87 236C114.749 236 114.646 235.958 114.562 235.874C114.488 235.79 114.45 235.692 114.45 235.58V233.914L114.688 233.718C114.688 233.979 114.618 234.255 114.478 234.544C114.338 234.824 114.138 235.085 113.876 235.328C113.624 235.571 113.326 235.767 112.98 235.916C112.644 236.065 112.28 236.14 111.888 236.14C111.263 236.14 110.698 235.977 110.194 235.65C109.7 235.323 109.308 234.88 109.018 234.32C108.729 233.76 108.584 233.121 108.584 232.402C108.584 231.693 108.729 231.058 109.018 230.498C109.308 229.929 109.7 229.485 110.194 229.168C110.689 228.841 111.249 228.678 111.874 228.678C112.257 228.678 112.621 228.748 112.966 228.888C113.312 229.028 113.615 229.219 113.876 229.462C114.147 229.705 114.357 229.985 114.506 230.302C114.665 230.61 114.744 230.932 114.744 231.268L114.45 231.058V226.06C114.45 225.948 114.488 225.85 114.562 225.766C114.646 225.682 114.749 225.64 114.87 225.64ZM111.958 235.356C112.462 235.356 112.901 235.23 113.274 234.978C113.657 234.717 113.956 234.367 114.17 233.928C114.394 233.48 114.506 232.971 114.506 232.402C114.506 231.842 114.394 231.343 114.17 230.904C113.956 230.456 113.657 230.106 113.274 229.854C112.892 229.593 112.453 229.462 111.958 229.462C111.473 229.462 111.034 229.593 110.642 229.854C110.26 230.106 109.956 230.456 109.732 230.904C109.518 231.343 109.41 231.842 109.41 232.402C109.41 232.962 109.518 233.466 109.732 233.914C109.956 234.362 110.26 234.717 110.642 234.978C111.034 235.23 111.473 235.356 111.958 235.356ZM123.415 235.566C123.405 235.687 123.354 235.79 123.261 235.874C123.177 235.958 123.079 236 122.967 236C122.836 236 122.729 235.958 122.645 235.874C122.57 235.79 122.533 235.687 122.533 235.566V226.634C122.533 226.513 122.575 226.41 122.659 226.326C122.743 226.242 122.85 226.2 122.981 226.2C123.093 226.2 123.191 226.242 123.275 226.326C123.368 226.41 123.415 226.513 123.415 226.634V235.566ZM129.697 228.678C130.313 228.678 130.803 228.804 131.167 229.056C131.54 229.299 131.806 229.635 131.965 230.064C132.133 230.484 132.217 230.951 132.217 231.464V235.58C132.217 235.692 132.175 235.79 132.091 235.874C132.007 235.958 131.909 236 131.797 236C131.666 236 131.563 235.958 131.489 235.874C131.414 235.79 131.377 235.692 131.377 235.58V231.506C131.377 231.133 131.316 230.792 131.195 230.484C131.073 230.176 130.873 229.929 130.593 229.742C130.322 229.555 129.963 229.462 129.515 229.462C129.113 229.462 128.731 229.555 128.367 229.742C128.012 229.929 127.723 230.176 127.499 230.484C127.275 230.792 127.163 231.133 127.163 231.506V235.58C127.163 235.692 127.121 235.79 127.037 235.874C126.953 235.958 126.855 236 126.743 236C126.612 236 126.509 235.958 126.435 235.874C126.36 235.79 126.323 235.692 126.323 235.58V229.308C126.323 229.196 126.36 229.098 126.435 229.014C126.519 228.93 126.621 228.888 126.743 228.888C126.864 228.888 126.962 228.93 127.037 229.014C127.121 229.098 127.163 229.196 127.163 229.308V230.484L126.841 230.988C126.859 230.689 126.953 230.405 127.121 230.134C127.298 229.854 127.522 229.607 127.793 229.392C128.063 229.168 128.362 228.995 128.689 228.874C129.025 228.743 129.361 228.678 129.697 228.678ZM134.511 234.866C134.436 234.754 134.399 234.647 134.399 234.544C134.408 234.432 134.469 234.343 134.581 234.278C134.655 234.213 134.739 234.185 134.833 234.194C134.935 234.203 135.029 234.25 135.113 234.334C135.365 234.661 135.668 234.927 136.023 235.132C136.387 235.328 136.816 235.426 137.311 235.426C137.572 235.426 137.829 235.384 138.081 235.3C138.342 235.207 138.557 235.071 138.725 234.894C138.893 234.707 138.977 234.474 138.977 234.194C138.977 233.905 138.893 233.671 138.725 233.494C138.557 233.317 138.337 233.177 138.067 233.074C137.805 232.971 137.525 232.883 137.227 232.808C136.909 232.724 136.601 232.631 136.303 232.528C136.004 232.416 135.738 232.281 135.505 232.122C135.281 231.954 135.099 231.753 134.959 231.52C134.819 231.287 134.749 231.002 134.749 230.666C134.749 230.274 134.856 229.929 135.071 229.63C135.285 229.331 135.575 229.098 135.939 228.93C136.312 228.762 136.732 228.678 137.199 228.678C137.432 228.678 137.684 228.711 137.955 228.776C138.225 228.832 138.491 228.93 138.753 229.07C139.014 229.21 139.247 229.401 139.453 229.644C139.537 229.728 139.579 229.826 139.579 229.938C139.579 230.041 139.532 230.134 139.439 230.218C139.364 230.274 139.275 230.302 139.173 230.302C139.079 230.302 139 230.265 138.935 230.19C138.711 229.938 138.445 229.747 138.137 229.616C137.829 229.485 137.497 229.42 137.143 229.42C136.872 229.42 136.615 229.467 136.373 229.56C136.139 229.644 135.943 229.775 135.785 229.952C135.626 230.129 135.547 230.363 135.547 230.652C135.565 230.923 135.659 231.142 135.827 231.31C136.004 231.478 136.233 231.618 136.513 231.73C136.802 231.842 137.124 231.945 137.479 232.038C137.777 232.113 138.062 232.201 138.333 232.304C138.613 232.407 138.855 232.537 139.061 232.696C139.275 232.845 139.443 233.037 139.565 233.27C139.695 233.503 139.761 233.797 139.761 234.152C139.761 234.563 139.644 234.917 139.411 235.216C139.187 235.515 138.883 235.743 138.501 235.902C138.118 236.061 137.693 236.14 137.227 236.14C136.723 236.14 136.233 236.042 135.757 235.846C135.29 235.65 134.875 235.323 134.511 234.866ZM141.517 228.874H144.779C144.891 228.874 144.984 228.916 145.059 229C145.134 229.075 145.171 229.168 145.171 229.28C145.171 229.383 145.134 229.471 145.059 229.546C144.984 229.621 144.891 229.658 144.779 229.658H141.517C141.405 229.658 141.307 229.621 141.223 229.546C141.148 229.462 141.111 229.369 141.111 229.266C141.111 229.154 141.148 229.061 141.223 228.986C141.307 228.911 141.405 228.874 141.517 228.874ZM142.959 226.9C143.08 226.9 143.178 226.942 143.253 227.026C143.337 227.11 143.379 227.208 143.379 227.32V234.348C143.379 234.609 143.412 234.805 143.477 234.936C143.552 235.067 143.645 235.155 143.757 235.202C143.869 235.239 143.981 235.258 144.093 235.258C144.168 235.258 144.233 235.249 144.289 235.23C144.354 235.202 144.424 235.188 144.499 235.188C144.583 235.188 144.653 235.221 144.709 235.286C144.774 235.351 144.807 235.435 144.807 235.538C144.807 235.669 144.732 235.781 144.583 235.874C144.434 235.958 144.256 236 144.051 236C143.967 236 143.841 235.995 143.673 235.986C143.505 235.967 143.332 235.916 143.155 235.832C142.978 235.739 142.828 235.58 142.707 235.356C142.595 235.132 142.539 234.81 142.539 234.39V227.32C142.539 227.208 142.576 227.11 142.651 227.026C142.735 226.942 142.838 226.9 142.959 226.9ZM147.643 236C147.513 236 147.41 235.958 147.335 235.874C147.261 235.79 147.223 235.692 147.223 235.58V229.308C147.223 229.196 147.261 229.098 147.335 229.014C147.419 228.93 147.522 228.888 147.643 228.888C147.765 228.888 147.863 228.93 147.937 229.014C148.021 229.098 148.063 229.196 148.063 229.308V231.408L147.853 231.45C147.881 231.123 147.961 230.801 148.091 230.484C148.231 230.157 148.418 229.859 148.651 229.588C148.885 229.317 149.16 229.098 149.477 228.93C149.804 228.762 150.168 228.678 150.569 228.678C150.737 228.678 150.901 228.715 151.059 228.79C151.218 228.855 151.297 228.967 151.297 229.126C151.297 229.266 151.26 229.373 151.185 229.448C151.111 229.523 151.022 229.56 150.919 229.56C150.835 229.56 150.742 229.537 150.639 229.49C150.546 229.443 150.42 229.42 150.261 229.42C150 229.42 149.739 229.499 149.477 229.658C149.216 229.807 148.978 230.013 148.763 230.274C148.549 230.535 148.376 230.829 148.245 231.156C148.124 231.473 148.063 231.795 148.063 232.122V235.58C148.063 235.692 148.021 235.79 147.937 235.874C147.853 235.958 147.755 236 147.643 236ZM158.458 228.888C158.579 228.888 158.677 228.93 158.752 229.014C158.836 229.098 158.878 229.196 158.878 229.308V233.256C158.878 234.18 158.617 234.885 158.094 235.37C157.571 235.855 156.867 236.098 155.98 236.098C155.103 236.098 154.403 235.855 153.88 235.37C153.367 234.885 153.11 234.18 153.11 233.256V229.308C153.11 229.196 153.147 229.098 153.222 229.014C153.306 228.93 153.409 228.888 153.53 228.888C153.651 228.888 153.749 228.93 153.824 229.014C153.908 229.098 153.95 229.196 153.95 229.308V233.256C153.95 233.928 154.127 234.441 154.482 234.796C154.846 235.141 155.345 235.314 155.98 235.314C156.624 235.314 157.128 235.141 157.492 234.796C157.856 234.441 158.038 233.928 158.038 233.256V229.308C158.038 229.196 158.075 229.098 158.15 229.014C158.225 228.93 158.327 228.888 158.458 228.888ZM164.731 228.678C165.179 228.678 165.589 228.729 165.963 228.832C166.336 228.925 166.635 229.056 166.859 229.224C167.092 229.392 167.209 229.574 167.209 229.77C167.209 229.863 167.176 229.957 167.111 230.05C167.045 230.134 166.957 230.176 166.845 230.176C166.733 230.176 166.639 230.148 166.565 230.092C166.499 230.036 166.429 229.971 166.355 229.896C166.289 229.821 166.191 229.751 166.061 229.686C165.939 229.63 165.767 229.579 165.543 229.532C165.319 229.485 165.062 229.462 164.773 229.462C164.25 229.462 163.779 229.593 163.359 229.854C162.939 230.115 162.607 230.47 162.365 230.918C162.122 231.357 162.001 231.851 162.001 232.402C162.001 232.962 162.117 233.466 162.351 233.914C162.584 234.362 162.906 234.717 163.317 234.978C163.727 235.23 164.208 235.356 164.759 235.356C165.132 235.356 165.421 235.323 165.627 235.258C165.832 235.193 166.009 235.118 166.159 235.034C166.336 234.931 166.462 234.833 166.537 234.74C166.621 234.637 166.728 234.586 166.859 234.586C166.98 234.586 167.069 234.623 167.125 234.698C167.19 234.763 167.223 234.852 167.223 234.964C167.223 235.113 167.111 235.281 166.887 235.468C166.672 235.645 166.373 235.804 165.991 235.944C165.608 236.075 165.169 236.14 164.675 236.14C163.975 236.14 163.359 235.977 162.827 235.65C162.304 235.323 161.893 234.88 161.595 234.32C161.305 233.751 161.161 233.111 161.161 232.402C161.161 231.721 161.31 231.1 161.609 230.54C161.907 229.98 162.323 229.532 162.855 229.196C163.396 228.851 164.021 228.678 164.731 228.678ZM168.865 228.874H172.127C172.239 228.874 172.332 228.916 172.407 229C172.481 229.075 172.519 229.168 172.519 229.28C172.519 229.383 172.481 229.471 172.407 229.546C172.332 229.621 172.239 229.658 172.127 229.658H168.865C168.753 229.658 168.655 229.621 168.571 229.546C168.496 229.462 168.459 229.369 168.459 229.266C168.459 229.154 168.496 229.061 168.571 228.986C168.655 228.911 168.753 228.874 168.865 228.874ZM170.307 226.9C170.428 226.9 170.526 226.942 170.601 227.026C170.685 227.11 170.727 227.208 170.727 227.32V234.348C170.727 234.609 170.759 234.805 170.825 234.936C170.899 235.067 170.993 235.155 171.105 235.202C171.217 235.239 171.329 235.258 171.441 235.258C171.515 235.258 171.581 235.249 171.637 235.23C171.702 235.202 171.772 235.188 171.847 235.188C171.931 235.188 172.001 235.221 172.057 235.286C172.122 235.351 172.155 235.435 172.155 235.538C172.155 235.669 172.08 235.781 171.931 235.874C171.781 235.958 171.604 236 171.399 236C171.315 236 171.189 235.995 171.021 235.986C170.853 235.967 170.68 235.916 170.503 235.832C170.325 235.739 170.176 235.58 170.055 235.356C169.943 235.132 169.887 234.81 169.887 234.39V227.32C169.887 227.208 169.924 227.11 169.999 227.026C170.083 226.942 170.185 226.9 170.307 226.9ZM181.166 232.416C181.166 233.125 181.012 233.765 180.704 234.334C180.396 234.894 179.976 235.337 179.444 235.664C178.912 235.981 178.306 236.14 177.624 236.14C176.962 236.14 176.36 235.981 175.818 235.664C175.286 235.337 174.862 234.894 174.544 234.334C174.236 233.765 174.082 233.125 174.082 232.416C174.082 231.697 174.236 231.058 174.544 230.498C174.862 229.938 175.286 229.495 175.818 229.168C176.36 228.841 176.962 228.678 177.624 228.678C178.306 228.678 178.912 228.841 179.444 229.168C179.976 229.495 180.396 229.938 180.704 230.498C181.012 231.058 181.166 231.697 181.166 232.416ZM180.326 232.416C180.326 231.847 180.21 231.343 179.976 230.904C179.743 230.456 179.421 230.106 179.01 229.854C178.609 229.593 178.147 229.462 177.624 229.462C177.12 229.462 176.663 229.593 176.252 229.854C175.842 230.106 175.515 230.456 175.272 230.904C175.039 231.343 174.922 231.847 174.922 232.416C174.922 232.985 175.039 233.489 175.272 233.928C175.515 234.367 175.842 234.717 176.252 234.978C176.663 235.23 177.12 235.356 177.624 235.356C178.147 235.356 178.609 235.23 179.01 234.978C179.421 234.717 179.743 234.367 179.976 233.928C180.21 233.489 180.326 232.985 180.326 232.416ZM183.872 236C183.741 236 183.638 235.958 183.564 235.874C183.489 235.79 183.452 235.692 183.452 235.58V229.308C183.452 229.196 183.489 229.098 183.564 229.014C183.648 228.93 183.75 228.888 183.872 228.888C183.993 228.888 184.091 228.93 184.166 229.014C184.25 229.098 184.292 229.196 184.292 229.308V231.408L184.082 231.45C184.11 231.123 184.189 230.801 184.32 230.484C184.46 230.157 184.646 229.859 184.88 229.588C185.113 229.317 185.388 229.098 185.706 228.93C186.032 228.762 186.396 228.678 186.798 228.678C186.966 228.678 187.129 228.715 187.288 228.79C187.446 228.855 187.526 228.967 187.526 229.126C187.526 229.266 187.488 229.373 187.414 229.448C187.339 229.523 187.25 229.56 187.148 229.56C187.064 229.56 186.97 229.537 186.868 229.49C186.774 229.443 186.648 229.42 186.49 229.42C186.228 229.42 185.967 229.499 185.706 229.658C185.444 229.807 185.206 230.013 184.992 230.274C184.777 230.535 184.604 230.829 184.474 231.156C184.352 231.473 184.292 231.795 184.292 232.122V235.58C184.292 235.692 184.25 235.79 184.166 235.874C184.082 235.958 183.984 236 183.872 236Z" fill="#838191"/>
</g>
<defs>
<clipPath id="clip0_2082_273">
<rect width="236" height="241" fill="white"/>
</clipPath>
</defs>
</svg>
