<svg width="236" height="241" viewBox="0 0 236 241" fill="none" xmlns="http://www.w3.org/2000/svg">
<circle cx="118" cy="84.5" r="84.5"/>
<path d="M43.5295 208C43.1562 208 42.8495 207.887 42.6095 207.66C42.3829 207.42 42.2695 207.127 42.2695 206.78V195.22C42.2695 194.873 42.3829 194.587 42.6095 194.36C42.8495 194.12 43.1429 194 43.4895 194H49.9895C50.3362 194 50.6229 194.113 50.8495 194.34C51.0895 194.553 51.2095 194.833 51.2095 195.18C51.2095 195.473 51.0895 195.733 50.8495 195.96C50.6229 196.187 50.3362 196.3 49.9895 196.3H44.5895L44.7695 196.06V200.08L44.6295 199.82H49.0895C49.4362 199.82 49.7229 199.933 49.9495 200.16C50.1895 200.373 50.3095 200.653 50.3095 201C50.3095 201.293 50.1895 201.553 49.9495 201.78C49.7229 202.007 49.4362 202.12 49.0895 202.12H44.5895L44.7695 201.94V206.78C44.7695 207.127 44.6429 207.42 44.3895 207.66C44.1495 207.887 43.8629 208 43.5295 208ZM54.8242 208C54.4776 208 54.1909 207.887 53.9642 207.66C53.7376 207.42 53.6242 207.127 53.6242 206.78V198.52C53.6242 198.173 53.7376 197.887 53.9642 197.66C54.1909 197.42 54.4776 197.3 54.8242 197.3C55.1709 197.3 55.4576 197.42 55.6842 197.66C55.9109 197.887 56.0242 198.173 56.0242 198.52V200.4L55.8842 199.06C56.0309 198.74 56.2176 198.46 56.4442 198.22C56.6842 197.967 56.9509 197.76 57.2442 197.6C57.5376 197.427 57.8509 197.3 58.1842 197.22C58.5176 197.14 58.8509 197.1 59.1842 197.1C59.5842 197.1 59.9176 197.213 60.1842 197.44C60.4642 197.667 60.6042 197.933 60.6042 198.24C60.6042 198.68 60.4909 199 60.2642 199.2C60.0376 199.387 59.7909 199.48 59.5242 199.48C59.2709 199.48 59.0376 199.433 58.8242 199.34C58.6242 199.247 58.3909 199.2 58.1242 199.2C57.8842 199.2 57.6376 199.26 57.3842 199.38C57.1442 199.487 56.9176 199.66 56.7042 199.9C56.5042 200.14 56.3376 200.44 56.2042 200.8C56.0842 201.147 56.0242 201.56 56.0242 202.04V206.78C56.0242 207.127 55.9109 207.42 55.6842 207.66C55.4576 207.887 55.1709 208 54.8242 208ZM65.0561 206.78C65.0561 207.127 64.9428 207.42 64.7161 207.66C64.4894 207.887 64.2028 208 63.8561 208C63.5094 208 63.2228 207.887 62.9961 207.66C62.7694 207.42 62.6561 207.127 62.6561 206.78V198.52C62.6561 198.173 62.7694 197.887 62.9961 197.66C63.2228 197.42 63.5094 197.3 63.8561 197.3C64.2028 197.3 64.4894 197.42 64.7161 197.66C64.9428 197.887 65.0561 198.173 65.0561 198.52V206.78ZM63.8361 196C63.3828 196 63.0628 195.927 62.8761 195.78C62.6894 195.633 62.5961 195.373 62.5961 195V194.62C62.5961 194.233 62.6961 193.973 62.8961 193.84C63.1094 193.693 63.4294 193.62 63.8561 193.62C64.3228 193.62 64.6494 193.693 64.8361 193.84C65.0228 193.987 65.1161 194.247 65.1161 194.62V195C65.1161 195.387 65.0161 195.653 64.8161 195.8C64.6161 195.933 64.2894 196 63.8361 196ZM76.7827 193.2C77.1293 193.2 77.416 193.313 77.6427 193.54C77.8693 193.767 77.9827 194.06 77.9827 194.42V206.78C77.9827 207.127 77.8693 207.42 77.6427 207.66C77.416 207.887 77.1293 208 76.7827 208C76.436 208 76.1493 207.887 75.9227 207.66C75.696 207.42 75.5827 207.127 75.5827 206.78V205.8L76.0227 205.98C76.0227 206.153 75.9293 206.367 75.7427 206.62C75.556 206.86 75.3027 207.1 74.9827 207.34C74.6627 207.58 74.2827 207.787 73.8427 207.96C73.416 208.12 72.9493 208.2 72.4427 208.2C71.5227 208.2 70.6893 207.967 69.9427 207.5C69.196 207.02 68.6027 206.367 68.1627 205.54C67.736 204.7 67.5227 203.74 67.5227 202.66C67.5227 201.567 67.736 200.607 68.1627 199.78C68.6027 198.94 69.1893 198.287 69.9227 197.82C70.656 197.34 71.4693 197.1 72.3627 197.1C72.936 197.1 73.4627 197.187 73.9427 197.36C74.4227 197.533 74.836 197.753 75.1827 198.02C75.5427 198.287 75.816 198.56 76.0027 198.84C76.2027 199.107 76.3027 199.333 76.3027 199.52L75.5827 199.78V194.42C75.5827 194.073 75.696 193.787 75.9227 193.56C76.1493 193.32 76.436 193.2 76.7827 193.2ZM72.7427 206C73.3293 206 73.8427 205.853 74.2827 205.56C74.7227 205.267 75.0627 204.867 75.3027 204.36C75.556 203.853 75.6827 203.287 75.6827 202.66C75.6827 202.02 75.556 201.447 75.3027 200.94C75.0627 200.433 74.7227 200.033 74.2827 199.74C73.8427 199.447 73.3293 199.3 72.7427 199.3C72.1693 199.3 71.6627 199.447 71.2227 199.74C70.7827 200.033 70.436 200.433 70.1827 200.94C69.9427 201.447 69.8227 202.02 69.8227 202.66C69.8227 203.287 69.9427 203.853 70.1827 204.36C70.436 204.867 70.7827 205.267 71.2227 205.56C71.6627 205.853 72.1693 206 72.7427 206ZM89.8413 197.1C90.1879 197.1 90.4746 197.213 90.7013 197.44C90.9279 197.667 91.0413 197.96 91.0413 198.32V206.78C91.0413 207.127 90.9279 207.42 90.7013 207.66C90.4746 207.887 90.1879 208 89.8413 208C89.4946 208 89.2079 207.887 88.9813 207.66C88.7546 207.42 88.6413 207.127 88.6413 206.78V205.8L89.0813 205.98C89.0813 206.153 88.9879 206.367 88.8013 206.62C88.6146 206.86 88.3613 207.1 88.0413 207.34C87.7213 207.58 87.3413 207.787 86.9013 207.96C86.4746 208.12 86.0079 208.2 85.5013 208.2C84.5813 208.2 83.7479 207.967 83.0013 207.5C82.2546 207.02 81.6613 206.367 81.2213 205.54C80.7946 204.7 80.5813 203.74 80.5813 202.66C80.5813 201.567 80.7946 200.607 81.2213 199.78C81.6613 198.94 82.2479 198.287 82.9813 197.82C83.7146 197.34 84.5279 197.1 85.4213 197.1C85.9946 197.1 86.5213 197.187 87.0013 197.36C87.4813 197.533 87.8946 197.753 88.2413 198.02C88.6013 198.287 88.8746 198.56 89.0613 198.84C89.2613 199.107 89.3613 199.333 89.3613 199.52L88.6413 199.78V198.32C88.6413 197.973 88.7546 197.687 88.9813 197.46C89.2079 197.22 89.4946 197.1 89.8413 197.1ZM85.8013 206C86.3879 206 86.9013 205.853 87.3413 205.56C87.7813 205.267 88.1213 204.867 88.3613 204.36C88.6146 203.853 88.7413 203.287 88.7413 202.66C88.7413 202.02 88.6146 201.447 88.3613 200.94C88.1213 200.433 87.7813 200.033 87.3413 199.74C86.9013 199.447 86.3879 199.3 85.8013 199.3C85.2279 199.3 84.7213 199.447 84.2813 199.74C83.8413 200.033 83.4946 200.433 83.2413 200.94C83.0013 201.447 82.8813 202.02 82.8813 202.66C82.8813 203.287 83.0013 203.853 83.2413 204.36C83.4946 204.867 83.8413 205.267 84.2813 205.56C84.7213 205.853 85.2279 206 85.8013 206ZM102.08 197.3C102.427 197.3 102.713 197.42 102.94 197.66C103.167 197.887 103.28 198.173 103.28 198.52V207.02C103.28 208.247 103.047 209.22 102.58 209.94C102.127 210.673 101.513 211.2 100.74 211.52C99.9665 211.84 99.0998 212 98.1398 212C97.7132 212 97.2598 211.967 96.7798 211.9C96.2998 211.833 95.9065 211.733 95.5998 211.6C95.1998 211.427 94.9198 211.207 94.7598 210.94C94.6132 210.687 94.5865 210.413 94.6798 210.12C94.7998 209.733 94.9932 209.467 95.2598 209.32C95.5265 209.187 95.8065 209.173 96.0998 209.28C96.3132 209.347 96.5932 209.447 96.9398 209.58C97.2865 209.727 97.6865 209.8 98.1398 209.8C98.7532 209.8 99.2598 209.713 99.6598 209.54C100.073 209.38 100.38 209.1 100.58 208.7C100.793 208.313 100.9 207.78 100.9 207.1V205.76L101.32 206.24C101.093 206.68 100.807 207.047 100.46 207.34C100.127 207.62 99.7265 207.833 99.2598 207.98C98.7932 208.127 98.2598 208.2 97.6598 208.2C96.9532 208.2 96.3332 208.04 95.7998 207.72C95.2798 207.387 94.8732 206.933 94.5798 206.36C94.2865 205.773 94.1398 205.107 94.1398 204.36V198.52C94.1398 198.173 94.2532 197.887 94.4798 197.66C94.7065 197.42 94.9932 197.3 95.3398 197.3C95.6865 197.3 95.9732 197.42 96.1998 197.66C96.4265 197.887 96.5398 198.173 96.5398 198.52V203.64C96.5398 204.507 96.7265 205.12 97.0998 205.48C97.4865 205.827 98.0198 206 98.6998 206C99.1665 206 99.5598 205.913 99.8798 205.74C100.2 205.553 100.447 205.287 100.62 204.94C100.793 204.58 100.88 204.147 100.88 203.64V198.52C100.88 198.173 100.993 197.887 101.22 197.66C101.447 197.42 101.733 197.3 102.08 197.3ZM122.624 193.98C122.97 193.98 123.25 194.1 123.464 194.34C123.677 194.567 123.784 194.853 123.784 195.2V202.44C123.784 203.547 123.544 204.527 123.064 205.38C122.597 206.233 121.95 206.9 121.124 207.38C120.297 207.86 119.337 208.1 118.244 208.1C117.15 208.1 116.184 207.86 115.344 207.38C114.517 206.9 113.864 206.233 113.384 205.38C112.917 204.527 112.684 203.547 112.684 202.44V195.2C112.684 194.853 112.804 194.567 113.044 194.34C113.284 194.1 113.59 193.98 113.964 193.98C114.27 193.98 114.544 194.1 114.784 194.34C115.037 194.567 115.164 194.853 115.164 195.2V202.44C115.164 203.107 115.304 203.687 115.584 204.18C115.877 204.66 116.257 205.033 116.724 205.3C117.204 205.567 117.71 205.7 118.244 205.7C118.817 205.7 119.35 205.567 119.844 205.3C120.337 205.033 120.737 204.66 121.044 204.18C121.35 203.687 121.504 203.107 121.504 202.44V195.2C121.504 194.853 121.604 194.567 121.804 194.34C122.004 194.1 122.277 193.98 122.624 193.98ZM128.145 207.98C127.758 207.98 127.458 207.88 127.245 207.68C127.045 207.467 126.945 207.167 126.945 206.78V206.44C126.945 206.053 127.045 205.76 127.245 205.56C127.458 205.347 127.758 205.24 128.145 205.24H128.405C128.792 205.24 129.085 205.347 129.285 205.56C129.498 205.76 129.605 206.053 129.605 206.44V206.78C129.605 207.167 129.498 207.467 129.285 207.68C129.085 207.88 128.792 207.98 128.405 207.98H128.145ZM148.811 193.98C149.158 193.98 149.438 194.1 149.651 194.34C149.864 194.567 149.971 194.853 149.971 195.2V202.44C149.971 203.547 149.731 204.527 149.251 205.38C148.784 206.233 148.138 206.9 147.311 207.38C146.484 207.86 145.524 208.1 144.431 208.1C143.338 208.1 142.371 207.86 141.531 207.38C140.704 206.9 140.051 206.233 139.571 205.38C139.104 204.527 138.871 203.547 138.871 202.44V195.2C138.871 194.853 138.991 194.567 139.231 194.34C139.471 194.1 139.778 193.98 140.151 193.98C140.458 193.98 140.731 194.1 140.971 194.34C141.224 194.567 141.351 194.853 141.351 195.2V202.44C141.351 203.107 141.491 203.687 141.771 204.18C142.064 204.66 142.444 205.033 142.911 205.3C143.391 205.567 143.898 205.7 144.431 205.7C145.004 205.7 145.538 205.567 146.031 205.3C146.524 205.033 146.924 204.66 147.231 204.18C147.538 203.687 147.691 203.107 147.691 202.44V195.2C147.691 194.853 147.791 194.567 147.991 194.34C148.191 194.1 148.464 193.98 148.811 193.98ZM158.813 197.1C159.746 197.1 160.579 197.34 161.313 197.82C162.059 198.287 162.646 198.933 163.073 199.76C163.513 200.587 163.733 201.547 163.733 202.64C163.733 203.733 163.513 204.7 163.073 205.54C162.646 206.367 162.066 207.02 161.333 207.5C160.613 207.967 159.799 208.2 158.893 208.2C158.359 208.2 157.859 208.113 157.393 207.94C156.926 207.767 156.513 207.547 156.153 207.28C155.806 207.013 155.533 206.747 155.333 206.48C155.146 206.2 155.053 205.967 155.053 205.78L155.673 205.52V206.98C155.673 207.327 155.559 207.62 155.333 207.86C155.106 208.087 154.819 208.2 154.473 208.2C154.126 208.2 153.839 208.087 153.613 207.86C153.386 207.633 153.273 207.34 153.273 206.98V194.42C153.273 194.073 153.386 193.787 153.613 193.56C153.839 193.32 154.126 193.2 154.473 193.2C154.819 193.2 155.106 193.32 155.333 193.56C155.559 193.787 155.673 194.073 155.673 194.42V199.5L155.333 199.32C155.333 199.147 155.426 198.94 155.613 198.7C155.799 198.447 156.053 198.2 156.373 197.96C156.693 197.707 157.059 197.5 157.473 197.34C157.899 197.18 158.346 197.1 158.813 197.1ZM158.513 199.3C157.926 199.3 157.413 199.447 156.973 199.74C156.533 200.033 156.186 200.433 155.933 200.94C155.693 201.433 155.573 202 155.573 202.64C155.573 203.267 155.693 203.84 155.933 204.36C156.186 204.867 156.533 205.267 156.973 205.56C157.413 205.853 157.926 206 158.513 206C159.099 206 159.606 205.853 160.033 205.56C160.473 205.267 160.813 204.867 161.053 204.36C161.306 203.84 161.433 203.267 161.433 202.64C161.433 202 161.306 201.433 161.053 200.94C160.813 200.433 160.473 200.033 160.033 199.74C159.606 199.447 159.099 199.3 158.513 199.3ZM175.091 197.1C175.438 197.1 175.725 197.213 175.951 197.44C176.178 197.667 176.291 197.96 176.291 198.32V206.78C176.291 207.127 176.178 207.42 175.951 207.66C175.725 207.887 175.438 208 175.091 208C174.745 208 174.458 207.887 174.231 207.66C174.005 207.42 173.891 207.127 173.891 206.78V205.8L174.331 205.98C174.331 206.153 174.238 206.367 174.051 206.62C173.865 206.86 173.611 207.1 173.291 207.34C172.971 207.58 172.591 207.787 172.151 207.96C171.725 208.12 171.258 208.2 170.751 208.2C169.831 208.2 168.998 207.967 168.251 207.5C167.505 207.02 166.911 206.367 166.471 205.54C166.045 204.7 165.831 203.74 165.831 202.66C165.831 201.567 166.045 200.607 166.471 199.78C166.911 198.94 167.498 198.287 168.231 197.82C168.965 197.34 169.778 197.1 170.671 197.1C171.245 197.1 171.771 197.187 172.251 197.36C172.731 197.533 173.145 197.753 173.491 198.02C173.851 198.287 174.125 198.56 174.311 198.84C174.511 199.107 174.611 199.333 174.611 199.52L173.891 199.78V198.32C173.891 197.973 174.005 197.687 174.231 197.46C174.458 197.22 174.745 197.1 175.091 197.1ZM171.051 206C171.638 206 172.151 205.853 172.591 205.56C173.031 205.267 173.371 204.867 173.611 204.36C173.865 203.853 173.991 203.287 173.991 202.66C173.991 202.02 173.865 201.447 173.611 200.94C173.371 200.433 173.031 200.033 172.591 199.74C172.151 199.447 171.638 199.3 171.051 199.3C170.478 199.3 169.971 199.447 169.531 199.74C169.091 200.033 168.745 200.433 168.491 200.94C168.251 201.447 168.131 202.02 168.131 202.66C168.131 203.287 168.251 203.853 168.491 204.36C168.745 204.867 169.091 205.267 169.531 205.56C169.971 205.853 170.478 206 171.051 206ZM185.11 197.1C186.097 197.1 186.843 197.307 187.35 197.72C187.87 198.133 188.223 198.687 188.41 199.38C188.61 200.06 188.71 200.82 188.71 201.66V206.78C188.71 207.127 188.597 207.42 188.37 207.66C188.143 207.887 187.857 208 187.51 208C187.163 208 186.877 207.887 186.65 207.66C186.423 207.42 186.31 207.127 186.31 206.78V201.66C186.31 201.22 186.25 200.827 186.13 200.48C186.023 200.12 185.823 199.833 185.53 199.62C185.237 199.407 184.817 199.3 184.27 199.3C183.737 199.3 183.283 199.407 182.91 199.62C182.55 199.833 182.27 200.12 182.07 200.48C181.883 200.827 181.79 201.22 181.79 201.66V206.78C181.79 207.127 181.677 207.42 181.45 207.66C181.223 207.887 180.937 208 180.59 208C180.243 208 179.957 207.887 179.73 207.66C179.503 207.42 179.39 207.127 179.39 206.78V198.52C179.39 198.173 179.503 197.887 179.73 197.66C179.957 197.42 180.243 197.3 180.59 197.3C180.937 197.3 181.223 197.42 181.45 197.66C181.677 197.887 181.79 198.173 181.79 198.52V199.38L181.49 199.32C181.61 199.093 181.783 198.853 182.01 198.6C182.237 198.333 182.503 198.087 182.81 197.86C183.117 197.633 183.463 197.453 183.85 197.32C184.237 197.173 184.657 197.1 185.11 197.1ZM194.064 206.78C194.064 207.127 193.951 207.42 193.724 207.66C193.497 207.887 193.211 208 192.864 208C192.517 208 192.231 207.887 192.004 207.66C191.777 207.42 191.664 207.127 191.664 206.78V198.52C191.664 198.173 191.777 197.887 192.004 197.66C192.231 197.42 192.517 197.3 192.864 197.3C193.211 197.3 193.497 197.42 193.724 197.66C193.951 197.887 194.064 198.173 194.064 198.52V206.78ZM192.844 196C192.391 196 192.071 195.927 191.884 195.78C191.697 195.633 191.604 195.373 191.604 195V194.62C191.604 194.233 191.704 193.973 191.904 193.84C192.117 193.693 192.437 193.62 192.864 193.62C193.331 193.62 193.657 193.693 193.844 193.84C194.031 193.987 194.124 194.247 194.124 194.62V195C194.124 195.387 194.024 195.653 193.824 195.8C193.624 195.933 193.297 196 192.844 196Z" fill="#34393C"/>
<path d="M54.8728 226.2C55.6568 226.2 56.2681 226.415 56.7068 226.844C57.1548 227.264 57.3788 227.852 57.3788 228.608C57.3788 229 57.2948 229.373 57.1268 229.728C56.9588 230.083 56.7114 230.372 56.3848 230.596C56.0581 230.811 55.6521 230.932 55.1668 230.96L55.1108 230.68C55.4561 230.68 55.7921 230.731 56.1188 230.834C56.4548 230.927 56.7534 231.081 57.0148 231.296C57.2761 231.511 57.4861 231.781 57.6448 232.108C57.8034 232.425 57.8828 232.813 57.8828 233.27C57.8828 233.755 57.7988 234.175 57.6308 234.53C57.4721 234.875 57.2528 235.155 56.9728 235.37C56.7021 235.585 56.3894 235.743 56.0348 235.846C55.6801 235.949 55.3114 236 54.9288 236H51.1628C51.0508 236 50.9528 235.958 50.8688 235.874C50.7848 235.79 50.7428 235.692 50.7428 235.58V226.62C50.7428 226.508 50.7848 226.41 50.8688 226.326C50.9528 226.242 51.0508 226.2 51.1628 226.2H54.8728ZM54.7608 227.026H51.4708L51.6388 226.774V230.736L51.4848 230.526H54.7608C55.2461 230.517 55.6521 230.358 55.9788 230.05C56.3148 229.742 56.4828 229.285 56.4828 228.678C56.4828 228.165 56.3334 227.763 56.0348 227.474C55.7361 227.175 55.3114 227.026 54.7608 227.026ZM54.8588 231.366H51.5688L51.6388 231.282V235.3L51.5548 235.174H54.8868C55.4841 235.174 55.9834 235.025 56.3848 234.726C56.7861 234.418 56.9868 233.933 56.9868 233.27C56.9868 232.803 56.8888 232.43 56.6928 232.15C56.4968 231.87 56.2354 231.669 55.9088 231.548C55.5821 231.427 55.2321 231.366 54.8588 231.366ZM66.0179 228.846C66.1392 228.846 66.2372 228.888 66.3119 228.972C66.3959 229.056 66.4379 229.159 66.4379 229.28V235.58C66.4379 235.692 66.3959 235.79 66.3119 235.874C66.2279 235.958 66.1299 236 66.0179 236C65.8966 236 65.7939 235.958 65.7099 235.874C65.6352 235.79 65.5979 235.692 65.5979 235.58V233.914L65.8359 233.802C65.8359 234.063 65.7612 234.329 65.6119 234.6C65.4719 234.871 65.2759 235.123 65.0239 235.356C64.7719 235.589 64.4732 235.781 64.1279 235.93C63.7919 236.07 63.4279 236.14 63.0359 236.14C62.4012 236.14 61.8319 235.977 61.3279 235.65C60.8332 235.323 60.4412 234.875 60.1519 234.306C59.8719 233.737 59.7319 233.097 59.7319 232.388C59.7319 231.66 59.8766 231.021 60.1659 230.47C60.4552 229.91 60.8472 229.471 61.3419 229.154C61.8366 228.837 62.3966 228.678 63.0219 228.678C63.4232 228.678 63.7966 228.748 64.1419 228.888C64.4966 229.028 64.8046 229.219 65.0659 229.462C65.3272 229.705 65.5279 229.985 65.6679 230.302C65.8172 230.61 65.8919 230.932 65.8919 231.268L65.5979 231.058V229.28C65.5979 229.159 65.6352 229.056 65.7099 228.972C65.7939 228.888 65.8966 228.846 66.0179 228.846ZM63.1059 235.356C63.6006 235.356 64.0392 235.23 64.4219 234.978C64.8046 234.717 65.1032 234.362 65.3179 233.914C65.5419 233.457 65.6539 232.948 65.6539 232.388C65.6539 231.837 65.5419 231.343 65.3179 230.904C65.1032 230.465 64.8046 230.115 64.4219 229.854C64.0392 229.593 63.6006 229.462 63.1059 229.462C62.6206 229.462 62.1819 229.588 61.7899 229.84C61.4072 230.092 61.1039 230.437 60.8799 230.876C60.6652 231.315 60.5579 231.819 60.5579 232.388C60.5579 232.948 60.6652 233.457 60.8799 233.914C61.1039 234.362 61.4072 234.717 61.7899 234.978C62.1726 235.23 62.6112 235.356 63.1059 235.356ZM72.2921 228.678C72.7401 228.678 73.1508 228.729 73.5241 228.832C73.8975 228.925 74.1961 229.056 74.4201 229.224C74.6535 229.392 74.7701 229.574 74.7701 229.77C74.7701 229.863 74.7375 229.957 74.6721 230.05C74.6068 230.134 74.5181 230.176 74.4061 230.176C74.2941 230.176 74.2008 230.148 74.1261 230.092C74.0608 230.036 73.9908 229.971 73.9161 229.896C73.8508 229.821 73.7528 229.751 73.6221 229.686C73.5008 229.63 73.3281 229.579 73.1041 229.532C72.8801 229.485 72.6235 229.462 72.3341 229.462C71.8115 229.462 71.3401 229.593 70.9201 229.854C70.5001 230.115 70.1688 230.47 69.9261 230.918C69.6835 231.357 69.5621 231.851 69.5621 232.402C69.5621 232.962 69.6788 233.466 69.9121 233.914C70.1455 234.362 70.4675 234.717 70.8781 234.978C71.2888 235.23 71.7695 235.356 72.3201 235.356C72.6935 235.356 72.9828 235.323 73.1881 235.258C73.3935 235.193 73.5708 235.118 73.7201 235.034C73.8975 234.931 74.0235 234.833 74.0981 234.74C74.1821 234.637 74.2895 234.586 74.4201 234.586C74.5415 234.586 74.6301 234.623 74.6861 234.698C74.7515 234.763 74.7841 234.852 74.7841 234.964C74.7841 235.113 74.6721 235.281 74.4481 235.468C74.2335 235.645 73.9348 235.804 73.5521 235.944C73.1695 236.075 72.7308 236.14 72.2361 236.14C71.5361 236.14 70.9201 235.977 70.3881 235.65C69.8655 235.323 69.4548 234.88 69.1561 234.32C68.8668 233.751 68.7221 233.111 68.7221 232.402C68.7221 231.721 68.8715 231.1 69.1701 230.54C69.4688 229.98 69.8841 229.532 70.4161 229.196C70.9575 228.851 71.5828 228.678 72.2921 228.678ZM77.3922 236C77.2709 236 77.1682 235.958 77.0842 235.874C77.0096 235.79 76.9722 235.692 76.9722 235.58V226.06C76.9722 225.948 77.0096 225.85 77.0842 225.766C77.1682 225.682 77.2709 225.64 77.3922 225.64C77.5136 225.64 77.6116 225.682 77.6862 225.766C77.7702 225.85 77.8122 225.948 77.8122 226.06V235.58C77.8122 235.692 77.7702 235.79 77.6862 235.874C77.6116 235.958 77.5136 236 77.3922 236ZM82.1522 228.818C82.2549 228.818 82.3482 228.865 82.4322 228.958C82.5162 229.042 82.5582 229.135 82.5582 229.238C82.5582 229.359 82.5069 229.467 82.4042 229.56L77.7002 233.564L77.6582 232.57L81.8582 228.958C81.9422 228.865 82.0402 228.818 82.1522 228.818ZM82.2642 236C82.1429 236 82.0402 235.949 81.9562 235.846L78.7642 232.458L79.3942 231.884L82.5582 235.258C82.6422 235.351 82.6842 235.459 82.6842 235.58C82.6842 235.711 82.6329 235.813 82.5302 235.888C82.4276 235.963 82.3389 236 82.2642 236ZM84.9924 232.038C84.8804 232.038 84.7824 231.996 84.6984 231.912C84.6237 231.828 84.5864 231.725 84.5864 231.604C84.5864 231.492 84.6237 231.399 84.6984 231.324C84.7824 231.24 84.8804 231.198 84.9924 231.198H88.0164C88.1284 231.198 88.2264 231.24 88.3104 231.324C88.3944 231.408 88.4364 231.511 88.4364 231.632C88.4364 231.744 88.3944 231.842 88.3104 231.926C88.2264 232.001 88.1284 232.038 88.0164 232.038H84.9924ZM94.0695 236.14C93.3508 236.14 92.7162 235.986 92.1655 235.678C91.6148 235.37 91.1855 234.941 90.8775 234.39C90.5695 233.839 90.4155 233.195 90.4155 232.458C90.4155 231.665 90.5695 230.988 90.8775 230.428C91.1948 229.868 91.6008 229.439 92.0955 229.14C92.5995 228.832 93.1315 228.678 93.6915 228.678C94.1022 228.678 94.4988 228.753 94.8815 228.902C95.2735 229.042 95.6188 229.257 95.9175 229.546C96.2255 229.826 96.4682 230.171 96.6455 230.582C96.8322 230.993 96.9348 231.469 96.9535 232.01C96.9442 232.122 96.8975 232.22 96.8135 232.304C96.7295 232.379 96.6315 232.416 96.5195 232.416H90.9055L90.7375 231.66H96.2535L96.0715 231.828V231.548C96.0342 231.109 95.8942 230.736 95.6515 230.428C95.4088 230.12 95.1148 229.887 94.7695 229.728C94.4242 229.569 94.0648 229.49 93.6915 229.49C93.4115 229.49 93.1222 229.546 92.8235 229.658C92.5342 229.77 92.2682 229.947 92.0255 230.19C91.7922 230.423 91.6008 230.727 91.4515 231.1C91.3022 231.464 91.2275 231.898 91.2275 232.402C91.2275 232.953 91.3395 233.452 91.5635 233.9C91.7875 234.348 92.1095 234.703 92.5295 234.964C92.9588 235.225 93.4675 235.356 94.0555 235.356C94.3822 235.356 94.6762 235.309 94.9375 235.216C95.1988 235.123 95.4275 235.001 95.6235 234.852C95.8195 234.693 95.9828 234.53 96.1135 234.362C96.2162 234.278 96.3188 234.236 96.4215 234.236C96.5148 234.236 96.5942 234.273 96.6595 234.348C96.7342 234.423 96.7715 234.507 96.7715 234.6C96.7715 234.712 96.7248 234.81 96.6315 234.894C96.3515 235.23 95.9875 235.524 95.5395 235.776C95.0915 236.019 94.6015 236.14 94.0695 236.14ZM102.626 228.678C103.242 228.678 103.732 228.804 104.096 229.056C104.469 229.299 104.735 229.635 104.894 230.064C105.062 230.484 105.146 230.951 105.146 231.464V235.58C105.146 235.692 105.104 235.79 105.02 235.874C104.936 235.958 104.838 236 104.726 236C104.595 236 104.492 235.958 104.418 235.874C104.343 235.79 104.306 235.692 104.306 235.58V231.506C104.306 231.133 104.245 230.792 104.124 230.484C104.002 230.176 103.802 229.929 103.522 229.742C103.251 229.555 102.892 229.462 102.444 229.462C102.042 229.462 101.66 229.555 101.296 229.742C100.941 229.929 100.652 230.176 100.428 230.484C100.204 230.792 100.092 231.133 100.092 231.506V235.58C100.092 235.692 100.05 235.79 99.9655 235.874C99.8815 235.958 99.7835 236 99.6715 236C99.5408 236 99.4382 235.958 99.3635 235.874C99.2888 235.79 99.2515 235.692 99.2515 235.58V229.308C99.2515 229.196 99.2888 229.098 99.3635 229.014C99.4475 228.93 99.5502 228.888 99.6715 228.888C99.7928 228.888 99.8908 228.93 99.9655 229.014C100.05 229.098 100.092 229.196 100.092 229.308V230.484L99.7695 230.988C99.7882 230.689 99.8815 230.405 100.05 230.134C100.227 229.854 100.451 229.607 100.722 229.392C100.992 229.168 101.291 228.995 101.618 228.874C101.954 228.743 102.29 228.678 102.626 228.678ZM113.711 225.64C113.833 225.64 113.931 225.682 114.005 225.766C114.089 225.841 114.131 225.939 114.131 226.06V235.58C114.131 235.692 114.089 235.79 114.005 235.874C113.921 235.958 113.823 236 113.711 236C113.59 236 113.487 235.958 113.403 235.874C113.329 235.79 113.291 235.692 113.291 235.58V233.914L113.529 233.718C113.529 233.979 113.459 234.255 113.319 234.544C113.179 234.824 112.979 235.085 112.717 235.328C112.465 235.571 112.167 235.767 111.821 235.916C111.485 236.065 111.121 236.14 110.729 236.14C110.104 236.14 109.539 235.977 109.035 235.65C108.541 235.323 108.149 234.88 107.859 234.32C107.57 233.76 107.425 233.121 107.425 232.402C107.425 231.693 107.57 231.058 107.859 230.498C108.149 229.929 108.541 229.485 109.035 229.168C109.53 228.841 110.09 228.678 110.715 228.678C111.098 228.678 111.462 228.748 111.807 228.888C112.153 229.028 112.456 229.219 112.717 229.462C112.988 229.705 113.198 229.985 113.347 230.302C113.506 230.61 113.585 230.932 113.585 231.268L113.291 231.058V226.06C113.291 225.948 113.329 225.85 113.403 225.766C113.487 225.682 113.59 225.64 113.711 225.64ZM110.799 235.356C111.303 235.356 111.742 235.23 112.115 234.978C112.498 234.717 112.797 234.367 113.011 233.928C113.235 233.48 113.347 232.971 113.347 232.402C113.347 231.842 113.235 231.343 113.011 230.904C112.797 230.456 112.498 230.106 112.115 229.854C111.733 229.593 111.294 229.462 110.799 229.462C110.314 229.462 109.875 229.593 109.483 229.854C109.101 230.106 108.797 230.456 108.573 230.904C108.359 231.343 108.251 231.842 108.251 232.402C108.251 232.962 108.359 233.466 108.573 233.914C108.797 234.362 109.101 234.717 109.483 234.978C109.875 235.23 110.314 235.356 110.799 235.356ZM122.256 235.566C122.246 235.687 122.195 235.79 122.102 235.874C122.018 235.958 121.92 236 121.808 236C121.677 236 121.57 235.958 121.486 235.874C121.411 235.79 121.374 235.687 121.374 235.566V226.634C121.374 226.513 121.416 226.41 121.5 226.326C121.584 226.242 121.691 226.2 121.822 226.2C121.934 226.2 122.032 226.242 122.116 226.326C122.209 226.41 122.256 226.513 122.256 226.634V235.566ZM128.538 228.678C129.154 228.678 129.644 228.804 130.008 229.056C130.381 229.299 130.647 229.635 130.806 230.064C130.974 230.484 131.058 230.951 131.058 231.464V235.58C131.058 235.692 131.016 235.79 130.932 235.874C130.848 235.958 130.75 236 130.638 236C130.507 236 130.404 235.958 130.33 235.874C130.255 235.79 130.218 235.692 130.218 235.58V231.506C130.218 231.133 130.157 230.792 130.036 230.484C129.914 230.176 129.714 229.929 129.434 229.742C129.163 229.555 128.804 229.462 128.356 229.462C127.954 229.462 127.572 229.555 127.208 229.742C126.853 229.929 126.564 230.176 126.34 230.484C126.116 230.792 126.004 231.133 126.004 231.506V235.58C126.004 235.692 125.962 235.79 125.878 235.874C125.794 235.958 125.696 236 125.584 236C125.453 236 125.35 235.958 125.276 235.874C125.201 235.79 125.164 235.692 125.164 235.58V229.308C125.164 229.196 125.201 229.098 125.276 229.014C125.36 228.93 125.462 228.888 125.584 228.888C125.705 228.888 125.803 228.93 125.878 229.014C125.962 229.098 126.004 229.196 126.004 229.308V230.484L125.682 230.988C125.7 230.689 125.794 230.405 125.962 230.134C126.139 229.854 126.363 229.607 126.634 229.392C126.904 229.168 127.203 228.995 127.53 228.874C127.866 228.743 128.202 228.678 128.538 228.678ZM133.351 234.866C133.277 234.754 133.239 234.647 133.239 234.544C133.249 234.432 133.309 234.343 133.421 234.278C133.496 234.213 133.58 234.185 133.673 234.194C133.776 234.203 133.869 234.25 133.953 234.334C134.205 234.661 134.509 234.927 134.863 235.132C135.227 235.328 135.657 235.426 136.151 235.426C136.413 235.426 136.669 235.384 136.921 235.3C137.183 235.207 137.397 235.071 137.565 234.894C137.733 234.707 137.817 234.474 137.817 234.194C137.817 233.905 137.733 233.671 137.565 233.494C137.397 233.317 137.178 233.177 136.907 233.074C136.646 232.971 136.366 232.883 136.067 232.808C135.75 232.724 135.442 232.631 135.143 232.528C134.845 232.416 134.579 232.281 134.345 232.122C134.121 231.954 133.939 231.753 133.799 231.52C133.659 231.287 133.589 231.002 133.589 230.666C133.589 230.274 133.697 229.929 133.911 229.63C134.126 229.331 134.415 229.098 134.779 228.93C135.153 228.762 135.573 228.678 136.039 228.678C136.273 228.678 136.525 228.711 136.795 228.776C137.066 228.832 137.332 228.93 137.593 229.07C137.855 229.21 138.088 229.401 138.293 229.644C138.377 229.728 138.419 229.826 138.419 229.938C138.419 230.041 138.373 230.134 138.279 230.218C138.205 230.274 138.116 230.302 138.013 230.302C137.92 230.302 137.841 230.265 137.775 230.19C137.551 229.938 137.285 229.747 136.977 229.616C136.669 229.485 136.338 229.42 135.983 229.42C135.713 229.42 135.456 229.467 135.213 229.56C134.98 229.644 134.784 229.775 134.625 229.952C134.467 230.129 134.387 230.363 134.387 230.652C134.406 230.923 134.499 231.142 134.667 231.31C134.845 231.478 135.073 231.618 135.353 231.73C135.643 231.842 135.965 231.945 136.319 232.038C136.618 232.113 136.903 232.201 137.173 232.304C137.453 232.407 137.696 232.537 137.901 232.696C138.116 232.845 138.284 233.037 138.405 233.27C138.536 233.503 138.601 233.797 138.601 234.152C138.601 234.563 138.485 234.917 138.251 235.216C138.027 235.515 137.724 235.743 137.341 235.902C136.959 236.061 136.534 236.14 136.067 236.14C135.563 236.14 135.073 236.042 134.597 235.846C134.131 235.65 133.715 235.323 133.351 234.866ZM140.358 228.874H143.62C143.732 228.874 143.825 228.916 143.9 229C143.975 229.075 144.012 229.168 144.012 229.28C144.012 229.383 143.975 229.471 143.9 229.546C143.825 229.621 143.732 229.658 143.62 229.658H140.358C140.246 229.658 140.148 229.621 140.064 229.546C139.989 229.462 139.952 229.369 139.952 229.266C139.952 229.154 139.989 229.061 140.064 228.986C140.148 228.911 140.246 228.874 140.358 228.874ZM141.8 226.9C141.921 226.9 142.019 226.942 142.094 227.026C142.178 227.11 142.22 227.208 142.22 227.32V234.348C142.22 234.609 142.253 234.805 142.318 234.936C142.393 235.067 142.486 235.155 142.598 235.202C142.71 235.239 142.822 235.258 142.934 235.258C143.009 235.258 143.074 235.249 143.13 235.23C143.195 235.202 143.265 235.188 143.34 235.188C143.424 235.188 143.494 235.221 143.55 235.286C143.615 235.351 143.648 235.435 143.648 235.538C143.648 235.669 143.573 235.781 143.424 235.874C143.275 235.958 143.097 236 142.892 236C142.808 236 142.682 235.995 142.514 235.986C142.346 235.967 142.173 235.916 141.996 235.832C141.819 235.739 141.669 235.58 141.548 235.356C141.436 235.132 141.38 234.81 141.38 234.39V227.32C141.38 227.208 141.417 227.11 141.492 227.026C141.576 226.942 141.679 226.9 141.8 226.9ZM146.484 236C146.353 236 146.251 235.958 146.176 235.874C146.101 235.79 146.064 235.692 146.064 235.58V229.308C146.064 229.196 146.101 229.098 146.176 229.014C146.26 228.93 146.363 228.888 146.484 228.888C146.605 228.888 146.703 228.93 146.778 229.014C146.862 229.098 146.904 229.196 146.904 229.308V231.408L146.694 231.45C146.722 231.123 146.801 230.801 146.932 230.484C147.072 230.157 147.259 229.859 147.492 229.588C147.725 229.317 148.001 229.098 148.318 228.93C148.645 228.762 149.009 228.678 149.41 228.678C149.578 228.678 149.741 228.715 149.9 228.79C150.059 228.855 150.138 228.967 150.138 229.126C150.138 229.266 150.101 229.373 150.026 229.448C149.951 229.523 149.863 229.56 149.76 229.56C149.676 229.56 149.583 229.537 149.48 229.49C149.387 229.443 149.261 229.42 149.102 229.42C148.841 229.42 148.579 229.499 148.318 229.658C148.057 229.807 147.819 230.013 147.604 230.274C147.389 230.535 147.217 230.829 147.086 231.156C146.965 231.473 146.904 231.795 146.904 232.122V235.58C146.904 235.692 146.862 235.79 146.778 235.874C146.694 235.958 146.596 236 146.484 236ZM157.299 228.888C157.42 228.888 157.518 228.93 157.593 229.014C157.677 229.098 157.719 229.196 157.719 229.308V233.256C157.719 234.18 157.457 234.885 156.935 235.37C156.412 235.855 155.707 236.098 154.821 236.098C153.943 236.098 153.243 235.855 152.721 235.37C152.207 234.885 151.951 234.18 151.951 233.256V229.308C151.951 229.196 151.988 229.098 152.063 229.014C152.147 228.93 152.249 228.888 152.371 228.888C152.492 228.888 152.59 228.93 152.665 229.014C152.749 229.098 152.791 229.196 152.791 229.308V233.256C152.791 233.928 152.968 234.441 153.323 234.796C153.687 235.141 154.186 235.314 154.821 235.314C155.465 235.314 155.969 235.141 156.333 234.796C156.697 234.441 156.879 233.928 156.879 233.256V229.308C156.879 229.196 156.916 229.098 156.991 229.014C157.065 228.93 157.168 228.888 157.299 228.888ZM163.571 228.678C164.019 228.678 164.43 228.729 164.803 228.832C165.177 228.925 165.475 229.056 165.699 229.224C165.933 229.392 166.049 229.574 166.049 229.77C166.049 229.863 166.017 229.957 165.951 230.05C165.886 230.134 165.797 230.176 165.685 230.176C165.573 230.176 165.48 230.148 165.405 230.092C165.34 230.036 165.27 229.971 165.195 229.896C165.13 229.821 165.032 229.751 164.901 229.686C164.78 229.63 164.607 229.579 164.383 229.532C164.159 229.485 163.903 229.462 163.613 229.462C163.091 229.462 162.619 229.593 162.199 229.854C161.779 230.115 161.448 230.47 161.205 230.918C160.963 231.357 160.841 231.851 160.841 232.402C160.841 232.962 160.958 233.466 161.191 233.914C161.425 234.362 161.747 234.717 162.157 234.978C162.568 235.23 163.049 235.356 163.599 235.356C163.973 235.356 164.262 235.323 164.467 235.258C164.673 235.193 164.85 235.118 164.999 235.034C165.177 234.931 165.303 234.833 165.377 234.74C165.461 234.637 165.569 234.586 165.699 234.586C165.821 234.586 165.909 234.623 165.965 234.698C166.031 234.763 166.063 234.852 166.063 234.964C166.063 235.113 165.951 235.281 165.727 235.468C165.513 235.645 165.214 235.804 164.831 235.944C164.449 236.075 164.01 236.14 163.515 236.14C162.815 236.14 162.199 235.977 161.667 235.65C161.145 235.323 160.734 234.88 160.435 234.32C160.146 233.751 160.001 233.111 160.001 232.402C160.001 231.721 160.151 231.1 160.449 230.54C160.748 229.98 161.163 229.532 161.695 229.196C162.237 228.851 162.862 228.678 163.571 228.678ZM167.706 228.874H170.968C171.08 228.874 171.173 228.916 171.248 229C171.322 229.075 171.36 229.168 171.36 229.28C171.36 229.383 171.322 229.471 171.248 229.546C171.173 229.621 171.08 229.658 170.968 229.658H167.706C167.594 229.658 167.496 229.621 167.412 229.546C167.337 229.462 167.3 229.369 167.3 229.266C167.3 229.154 167.337 229.061 167.412 228.986C167.496 228.911 167.594 228.874 167.706 228.874ZM169.148 226.9C169.269 226.9 169.367 226.942 169.442 227.026C169.526 227.11 169.568 227.208 169.568 227.32V234.348C169.568 234.609 169.6 234.805 169.666 234.936C169.74 235.067 169.834 235.155 169.946 235.202C170.058 235.239 170.17 235.258 170.282 235.258C170.356 235.258 170.422 235.249 170.478 235.23C170.543 235.202 170.613 235.188 170.688 235.188C170.772 235.188 170.842 235.221 170.898 235.286C170.963 235.351 170.996 235.435 170.996 235.538C170.996 235.669 170.921 235.781 170.772 235.874C170.622 235.958 170.445 236 170.24 236C170.156 236 170.03 235.995 169.862 235.986C169.694 235.967 169.521 235.916 169.344 235.832C169.166 235.739 169.017 235.58 168.896 235.356C168.784 235.132 168.728 234.81 168.728 234.39V227.32C168.728 227.208 168.765 227.11 168.84 227.026C168.924 226.942 169.026 226.9 169.148 226.9ZM180.007 232.416C180.007 233.125 179.853 233.765 179.545 234.334C179.237 234.894 178.817 235.337 178.285 235.664C177.753 235.981 177.147 236.14 176.465 236.14C175.803 236.14 175.201 235.981 174.659 235.664C174.127 235.337 173.703 234.894 173.385 234.334C173.077 233.765 172.923 233.125 172.923 232.416C172.923 231.697 173.077 231.058 173.385 230.498C173.703 229.938 174.127 229.495 174.659 229.168C175.201 228.841 175.803 228.678 176.465 228.678C177.147 228.678 177.753 228.841 178.285 229.168C178.817 229.495 179.237 229.938 179.545 230.498C179.853 231.058 180.007 231.697 180.007 232.416ZM179.167 232.416C179.167 231.847 179.051 231.343 178.817 230.904C178.584 230.456 178.262 230.106 177.851 229.854C177.45 229.593 176.988 229.462 176.465 229.462C175.961 229.462 175.504 229.593 175.093 229.854C174.683 230.106 174.356 230.456 174.113 230.904C173.88 231.343 173.763 231.847 173.763 232.416C173.763 232.985 173.88 233.489 174.113 233.928C174.356 234.367 174.683 234.717 175.093 234.978C175.504 235.23 175.961 235.356 176.465 235.356C176.988 235.356 177.45 235.23 177.851 234.978C178.262 234.717 178.584 234.367 178.817 233.928C179.051 233.489 179.167 232.985 179.167 232.416ZM182.713 236C182.582 236 182.479 235.958 182.405 235.874C182.33 235.79 182.293 235.692 182.293 235.58V229.308C182.293 229.196 182.33 229.098 182.405 229.014C182.489 228.93 182.591 228.888 182.713 228.888C182.834 228.888 182.932 228.93 183.007 229.014C183.091 229.098 183.133 229.196 183.133 229.308V231.408L182.923 231.45C182.951 231.123 183.03 230.801 183.161 230.484C183.301 230.157 183.487 229.859 183.721 229.588C183.954 229.317 184.229 229.098 184.547 228.93C184.873 228.762 185.237 228.678 185.639 228.678C185.807 228.678 185.97 228.715 186.129 228.79C186.287 228.855 186.367 228.967 186.367 229.126C186.367 229.266 186.329 229.373 186.255 229.448C186.18 229.523 186.091 229.56 185.989 229.56C185.905 229.56 185.811 229.537 185.709 229.49C185.615 229.443 185.489 229.42 185.331 229.42C185.069 229.42 184.808 229.499 184.547 229.658C184.285 229.807 184.047 230.013 183.833 230.274C183.618 230.535 183.445 230.829 183.315 231.156C183.193 231.473 183.133 231.795 183.133 232.122V235.58C183.133 235.692 183.091 235.79 183.007 235.874C182.923 235.958 182.825 236 182.713 236Z" fill="#838191"/>
</svg>
